<?xml version="1.0" standalone="no"?>
<!DOCTYPE svg PUBLIC "-//W3C//DTD SVG 20010904//EN"
 "http://www.w3.org/TR/2001/REC-SVG-20010904/DTD/svg10.dtd">
<svg version="1.0" xmlns="http://www.w3.org/2000/svg"
 width="500.000000pt" height="500.000000pt" viewBox="0 0 500.000000 500.000000"
 preserveAspectRatio="xMidYMid meet">
<metadata>
Created by potrace 1.14, written by Peter Selinger 2001-2017
</metadata>
<g transform="translate(0.000000,500.000000) scale(0.100000,-0.100000)"
fill="#000000" stroke="none">
<path d="M1332 2713 l3 -678 53 -3 52 -3 0 680 0 681 -55 0 -55 0 2 -677z"/>
<path d="M3260 3235 l0 -145 -65 0 -65 0 0 -50 0 -50 60 0 60 0 0 -75 c0 -119
-28 -354 -54 -458 -29 -115 -83 -233 -138 -304 l-41 -54 37 -34 38 -34 23 27
c35 40 98 149 123 212 55 136 88 333 108 633 l6 87 64 0 64 0 -6 -127 c-18
-457 -33 -623 -60 -675 -14 -27 -18 -28 -85 -28 -58 0 -70 -3 -66 -14 3 -8 9
-31 13 -50 l6 -36 64 0 c157 0 181 48 204 414 13 204 28 598 22 609 -2 4 -52
7 -113 7 l-109 0 0 145 0 145 -45 0 -45 0 0 -145z"/>
<path d="M1988 3312 l-338 -2 0 -50 0 -50 44 0 c39 0 45 -3 56 -31 22 -53 84
-141 144 -206 l58 -63 -103 -50 c-57 -27 -147 -62 -199 -76 -52 -15 -96 -28
-98 -29 -1 -1 9 -22 23 -48 l26 -45 82 25 c114 35 169 57 269 110 l87 46 48
-31 c27 -17 82 -47 123 -66 73 -33 218 -82 224 -75 37 48 64 99 53 99 -59 0
-357 118 -357 141 0 4 18 23 41 42 22 19 65 66 94 103 56 69 130 205 123 225
-10 30 -66 34 -400 31z m238 -130 c-24 -47 -91 -127 -140 -167 -44 -36 -47
-37 -70 -21 -30 19 -127 138 -150 184 l-17 32 196 0 196 0 -15 -28z"/>
<path d="M2750 2770 l0 -510 45 0 45 0 0 70 0 69 118 3 117 3 0 435 0 435
-162 3 -163 2 0 -510z m238 73 l-3 -348 -72 -3 -73 -3 0 351 0 350 75 0 75 0
-2 -347z"/>
<path d="M3678 3213 l-48 -4 0 -560 0 -559 45 0 45 0 0 60 0 60 95 0 95 0 0
-55 0 -55 45 0 45 0 0 560 0 560 -137 -2 c-76 -1 -159 -3 -185 -5z m232 -503
l0 -400 -95 0 -95 0 0 400 0 400 95 0 95 0 0 -400z"/>
<path d="M1490 3133 c-19 -8 -36 -16 -38 -17 -1 -2 13 -37 32 -78 18 -41 42
-100 52 -131 10 -31 21 -57 25 -57 4 0 24 10 44 21 28 17 34 26 29 43 -14 46
-96 236 -102 235 -4 0 -23 -7 -42 -16z"/>
<path d="M1186 3054 c-17 -133 -30 -205 -48 -262 -11 -35 -18 -65 -16 -67 2
-2 21 -10 42 -19 32 -13 41 -14 47 -4 24 38 80 370 66 384 -3 3 -23 8 -45 11
l-40 5 -6 -48z"/>
<path d="M1980 2610 l0 -80 -175 0 -175 0 0 -50 0 -50 175 0 175 0 0 -125 0
-125 -210 0 -210 0 0 -50 0 -50 465 0 465 0 0 50 0 50 -200 0 -200 0 0 125 0
125 170 0 170 0 0 50 0 50 -170 0 -170 0 0 80 0 80 -55 0 -55 0 0 -80z"/>
<path d="M1617 1773 c-4 -3 -7 -15 -7 -25 0 -15 -8 -18 -60 -18 -47 0 -60 -3
-60 -15 0 -12 13 -15 56 -15 47 0 55 -3 52 -17 -2 -13 -16 -19 -52 -23 -68 -7
-74 -30 -8 -30 47 0 49 -1 45 -25 -5 -22 -10 -24 -66 -27 -37 -2 -62 -8 -65
-15 -3 -10 13 -13 58 -13 59 0 62 -1 57 -22 -20 -82 -20 -100 -1 -96 13 2 21
18 28 58 l11 55 48 3 c47 3 48 2 42 -20 -11 -35 -26 -49 -48 -46 -11 2 -22 -3
-24 -9 -7 -20 61 -16 79 5 14 16 38 75 38 93 0 5 -29 9 -64 9 -62 0 -63 0 -58
25 4 23 9 25 58 25 41 0 54 4 54 15 0 11 -12 15 -51 15 -43 0 -50 3 -47 18 2
13 17 18 67 22 87 7 96 30 12 30 -58 0 -61 1 -61 25 0 24 -18 34 -33 18z"/>
<path d="M2017 1760 c-4 -17 -14 -20 -61 -20 -31 0 -56 -4 -56 -10 0 -5 25
-10 55 -10 48 0 55 -3 55 -19 0 -22 -11 -27 -82 -37 -33 -4 -48 -11 -48 -21 0
-12 9 -14 46 -8 26 3 54 9 62 13 11 4 14 1 9 -11 -4 -12 -1 -17 11 -17 15 0
21 16 33 80 15 75 15 80 -1 80 -10 0 -20 -9 -23 -20z"/>
<path d="M2110 1725 c-19 -90 -14 -99 49 -103 71 -4 98 3 106 29 10 30 -10 47
-24 20 -10 -17 -21 -21 -61 -21 -33 0 -50 4 -50 13 0 24 16 35 72 51 31 9 60
21 63 26 11 18 -20 21 -64 5 -54 -19 -51 -20 -51 10 0 15 -6 25 -14 25 -10 0
-19 -19 -26 -55z"/>
<path d="M2483 1746 c-11 -24 -24 -36 -42 -38 -24 -3 -26 -9 -57 -161 -17 -87
-27 -160 -23 -163 13 -7 29 5 29 22 0 11 14 14 60 14 70 0 66 -5 90 114 13 64
20 80 32 78 9 -1 29 13 43 33 25 32 31 35 81 35 30 0 54 -3 54 -7 0 -17 -50
-195 -65 -229 -14 -35 -17 -36 -55 -31 -35 4 -40 2 -40 -14 0 -15 7 -19 38
-19 44 0 79 22 93 59 11 27 69 250 69 264 0 4 -29 7 -65 7 l-66 0 16 30 c19
37 19 40 -3 40 -11 0 -26 -17 -40 -48 -12 -26 -34 -61 -47 -77 l-25 -30 6 43
7 42 -38 0 -37 0 16 25 c20 30 20 45 1 45 -9 0 -23 -16 -32 -34z m47 -80 c0
-7 -3 -28 -6 -45 -6 -29 -9 -31 -51 -31 l-45 0 6 31 c3 17 6 38 6 45 0 10 13
14 45 14 32 0 45 -4 45 -14z m-20 -111 c0 -2 -5 -27 -11 -55 l-11 -50 -44 0
c-24 0 -44 2 -44 5 0 2 5 27 11 55 l11 50 44 0 c24 0 44 -2 44 -5z"/>
<path d="M3110 1765 c0 -12 -15 -15 -75 -15 -60 0 -75 -3 -75 -15 0 -12 14
-15 70 -15 89 0 92 -18 3 -22 -42 -2 -68 -8 -71 -15 -3 -10 14 -13 62 -13 51
0 66 -3 66 -15 0 -11 -19 -15 -92 -17 -62 -2 -93 -7 -96 -15 -3 -10 40 -13
191 -13 164 0 196 2 201 15 4 13 -9 15 -84 15 -73 0 -90 3 -90 15 0 12 14 15
70 15 56 0 70 3 70 15 0 12 -14 15 -65 15 -37 0 -65 4 -65 10 0 6 33 10 79 10
61 0 80 3 85 15 4 13 -8 15 -75 15 -68 0 -80 2 -75 15 4 10 -1 15 -14 15 -11
0 -20 -7 -20 -15z"/>
<path d="M3617 1765 c-4 -10 -26 -15 -78 -17 -47 -2 -74 -7 -77 -15 -3 -10 14
-13 63 -13 58 0 66 -2 63 -17 -3 -15 -16 -19 -66 -21 -74 -4 -84 -22 -12 -22
28 0 50 -4 50 -8 0 -21 -29 -32 -87 -32 -49 0 -63 -3 -63 -15 0 -11 13 -15 53
-15 l52 -1 -30 -25 c-16 -14 -47 -34 -69 -45 -29 -16 -36 -23 -27 -32 9 -9 21
-7 51 10 22 12 40 18 40 15 -1 -4 -7 -35 -14 -70 -14 -62 -7 -87 17 -63 15 15
164 15 169 -1 6 -18 38 -1 38 21 0 11 5 43 11 70 l11 50 29 -21 c27 -20 31
-21 45 -6 14 14 13 17 -18 36 -18 12 -39 30 -46 41 -12 20 -10 21 38 21 38 0
50 4 50 15 0 12 -13 15 -59 15 -43 0 -60 4 -64 15 -9 21 8 28 53 20 38 -6 46
-1 38 22 -2 4 -38 6 -80 4 -43 -1 -78 1 -78 6 1 29 20 35 101 32 73 -3 84 -1
87 14 3 15 -6 17 -77 17 -65 0 -81 3 -81 15 0 19 -26 20 -33 0z m31 -127 c3
-15 -4 -18 -32 -18 -34 0 -35 1 -24 20 15 25 51 23 56 -2z m26 -63 c4 -13 -7
-15 -71 -15 -66 0 -74 2 -63 15 8 10 31 15 70 15 42 0 59 -4 64 -15z m-1 -65
c-5 -18 -14 -20 -84 -20 -44 0 -79 2 -79 4 0 30 16 36 90 36 73 0 78 -1 73
-20z m-13 -70 c0 -18 -7 -20 -80 -20 -73 0 -80 2 -80 20 0 18 7 20 80 20 73 0
80 -2 80 -20z"/>
<path d="M1395 1750 c-3 -5 6 -26 21 -45 21 -28 30 -33 40 -24 15 12 12 22
-19 57 -22 24 -33 27 -42 12z"/>
<path d="M1350 1600 c0 -15 7 -20 26 -20 22 0 25 -3 21 -22 -4 -13 -9 -42 -13
-65 -4 -24 -9 -43 -13 -43 -17 0 -63 -48 -57 -59 5 -8 15 -6 33 9 31 24 46 25
79 3 49 -32 284 -30 284 3 0 13 -14 14 -92 8 -94 -6 -157 3 -190 28 -16 12
-16 19 -3 88 8 41 15 78 15 83 0 4 -20 7 -45 7 -38 0 -45 -3 -45 -20z"/>
<path d="M2613 1604 c-8 -4 -5 -20 10 -54 21 -47 39 -61 52 -41 6 10 -35 102
-44 100 -4 0 -11 -3 -18 -5z"/>
<path d="M1927 1588 c-11 -31 -40 -208 -34 -214 11 -12 26 7 33 41 l6 35 104
0 c103 0 103 0 95 -22 -6 -16 -18 -24 -40 -26 -45 -5 -33 -27 13 -26 21 1 41
5 46 10 7 7 50 188 50 210 0 2 -60 4 -134 4 -98 0 -135 -3 -139 -12z m233 -28
c0 -19 -7 -20 -105 -20 -58 0 -105 2 -105 4 0 31 15 36 111 36 92 0 99 -1 99
-20z m-12 -62 c-3 -9 -36 -14 -106 -16 -86 -2 -102 0 -102 13 0 12 17 15 106
15 80 0 105 -3 102 -12z"/>
<path d="M2955 1568 c-7 -22 -35 -169 -35 -184 0 -30 28 -12 37 24 l9 37 97 3
97 3 0 -26 c0 -22 -4 -25 -36 -25 -24 0 -34 -4 -31 -12 5 -14 75 -14 89 0 4 4
16 49 26 100 l19 92 -134 0 c-98 0 -135 -3 -138 -12z m233 -20 c-5 -15 -208
-24 -208 -10 0 19 17 22 113 22 74 0 98 -3 95 -12z m-14 -63 c-5 -12 -26 -15
-105 -15 -81 0 -99 3 -99 15 0 12 18 15 105 15 89 0 104 -2 99 -15z"/>
</g>
</svg>
